<svg xmlns="http://www.w3.org/2000/svg" viewBox="0 0 900 560" role="img" aria-labelledby="title desc">
  <title id="title">Generic aesthetic evaluation plan</title>
  <desc id="desc">Generic aesthetic evaluation composition with clipboard, pencil, products, and swatches.</desc>
  <rect width="900" height="560" fill="#fff9ea"/>
  <path d="M0 120c126 30 246 12 384 48c160 42 298 108 516 58v334H0Z" fill="#f7e7e2"/>
  <circle cx="740" cy="386" r="118" fill="#dde7dd"/>
  <rect x="252" y="90" width="286" height="382" rx="34" fill="#ffffff"/>
  <rect x="340" y="64" width="110" height="62" rx="22" fill="#d7b84a"/>
  <rect x="306" y="178" width="176" height="14" rx="7" fill="#4a3527" opacity="0.18"/>
  <rect x="306" y="232" width="128" height="14" rx="7" fill="#4a3527" opacity="0.18"/>
  <rect x="306" y="286" width="166" height="14" rx="7" fill="#4a3527" opacity="0.18"/>
  <rect x="306" y="340" width="118" height="14" rx="7" fill="#4a3527" opacity="0.18"/>
  <rect x="574" y="170" width="44" height="270" rx="22" transform="rotate(-24 574 170)" fill="#d7b84a"/>
  <rect x="562" y="142" width="44" height="54" rx="14" transform="rotate(-24 562 142)" fill="#4a3527" opacity="0.32"/>
  <rect x="136" y="330" width="74" height="106" rx="22" fill="#fffdf7"/>
  <rect x="156" y="290" width="34" height="48" rx="12" fill="#d7b84a"/>
  <circle cx="674" cy="406" r="46" fill="#ffffff"/>
  <circle cx="734" cy="386" r="38" fill="#fffdf7"/>
</svg>
