<svg xmlns="http://www.w3.org/2000/svg" viewBox="0 0 900 1200" role="img" aria-labelledby="title desc">
  <title id="title">Generic aesthetic treatment room</title>
  <desc id="desc">Soft illustration of a calm aesthetic treatment room with a treatment bed, shelves, plants, and skincare products.</desc>
  <defs>
    <linearGradient id="bg" x1="0" y1="0" x2="1" y2="1">
      <stop offset="0" stop-color="#f7e7e2"/>
      <stop offset="0.5" stop-color="#fff9ea"/>
      <stop offset="1" stop-color="#dde7dd"/>
    </linearGradient>
    <linearGradient id="floor" x1="0" y1="0" x2="0" y2="1">
      <stop offset="0" stop-color="#fffaf0"/>
      <stop offset="1" stop-color="#eadbc6"/>
    </linearGradient>
    <filter id="shadow" x="-20%" y="-20%" width="140%" height="140%">
      <feDropShadow dx="0" dy="18" stdDeviation="22" flood-color="#4a3527" flood-opacity="0.16"/>
    </filter>
  </defs>
  <rect width="900" height="1200" fill="url(#bg)"/>
  <circle cx="160" cy="160" r="116" fill="#d7b84a" opacity="0.22"/>
  <circle cx="770" cy="360" r="150" fill="#ffffff" opacity="0.42"/>
  <circle cx="760" cy="960" r="180" fill="#b9972e" opacity="0.13"/>
  <path d="M0 820C170 770 320 842 480 804C654 763 746 678 900 710V1200H0Z" fill="url(#floor)"/>
  <path d="M220 92h460c50 0 90 40 90 90v514H130V182c0-50 40-90 90-90Z" fill="#fffdf7" opacity="0.72"/>
  <path d="M452 155c-112 0-204 92-204 204v311h408V359c0-112-92-204-204-204Z" fill="#f7eee4"/>
  <path d="M452 206c-84 0-153 69-153 153v244h306V359c0-84-69-153-153-153Z" fill="#ffffff" opacity="0.82"/>
  <path d="M302 620h300" stroke="#d7b84a" stroke-width="8" stroke-linecap="round" opacity="0.35"/>
  <g filter="url(#shadow)">
    <rect x="164" y="705" width="572" height="132" rx="38" fill="#ffffff"/>
    <path d="M224 705h416c54 0 98 44 98 98v34H126v-34c0-54 44-98 98-98Z" fill="#f7e7e2"/>
    <rect x="160" y="818" width="584" height="44" rx="22" fill="#d7b84a"/>
    <rect x="210" y="862" width="34" height="154" rx="17" fill="#4a3527" opacity="0.35"/>
    <rect x="656" y="862" width="34" height="154" rx="17" fill="#4a3527" opacity="0.35"/>
  </g>
  <g opacity="0.92">
    <rect x="100" y="405" width="150" height="16" rx="8" fill="#4a3527" opacity="0.3"/>
    <rect x="112" y="337" width="36" height="68" rx="12" fill="#d7b84a"/>
    <rect x="164" y="303" width="42" height="102" rx="13" fill="#ffffff"/>
    <rect x="212" y="358" width="26" height="47" rx="9" fill="#dde7dd"/>
    <rect x="650" y="405" width="150" height="16" rx="8" fill="#4a3527" opacity="0.3"/>
    <rect x="666" y="338" width="38" height="67" rx="13" fill="#ffffff"/>
    <rect x="718" y="294" width="44" height="111" rx="14" fill="#d7b84a"/>
  </g>
  <g transform="translate(98 794)">
    <path d="M78 120c-7-68 16-128 62-180c30 67 18 127-62 180Z" fill="#7f9a7b"/>
    <path d="M78 120c-46-50-58-108-31-173c50 49 70 108 31 173Z" fill="#9fb29a"/>
    <path d="M78 120c18-76 60-124 126-147c-2 76-42 124-126 147Z" fill="#6e8c69"/>
    <rect x="34" y="118" width="94" height="86" rx="20" fill="#fffdf7"/>
  </g>
  <g transform="translate(640 812)">
    <rect x="0" y="84" width="130" height="128" rx="24" fill="#fffdf7"/>
    <path d="M66 92c-11-70 13-133 72-188c18 81-4 143-72 188Z" fill="#7f9a7b"/>
    <path d="M66 92c-52-35-79-86-78-153c61 30 90 80 78 153Z" fill="#9fb29a"/>
  </g>
</svg>
